<?xml version="1.0" encoding="UTF-8"?>
<svg id="Layer_2" xmlns="http://www.w3.org/2000/svg" viewBox="0 0 95 95">
  <defs>
    <style>
      .cls-1 {
        fill: #f29770;
      }
    </style>
  </defs>
  <path class="cls-1" d="M91.21,82.41c-7.12-7.12-8.35-23.96-8.56-29.35,2.79-1.57,4.68-4.56,4.68-7.98v-12.59c0-1.11-.64-2.08-1.57-2.55,0,0-.01,0-.02-.01L49.55,11.83v-4.96c0-1.58-1.28-2.86-2.86-2.86s-2.86,1.28-2.86,2.86v4.96L7.62,29.93s0,0-.01,0c-.93.47-1.57,1.44-1.57,2.55v12.59c0,3.42,1.89,6.41,4.68,7.98-.21,5.39-1.44,22.23-8.56,29.35-.82.82-1.06,2.05-.62,3.12.44,1.07,1.49,1.77,2.64,1.77h28.34c.76,0,1.49-.3,2.02-.84,8.71-8.71,10.05-27.52,10.25-33.35.69-.38,1.33-.85,1.9-1.38.57.54,1.21,1,1.9,1.38.2,5.83,1.53,24.64,10.25,33.35.54.54,1.26.84,2.02.84h28.34c1.16,0,2.2-.7,2.64-1.77.44-1.07.2-2.3-.62-3.12ZM46.68,16.8l25.66,12.83H21.03l25.66-12.83ZM31.26,81.57H9.86c5.11-8.93,6.28-21.79,6.55-27.42,1.96-.26,3.72-1.14,5.09-2.43,1.64,1.56,3.86,2.51,6.3,2.51s4.65-.96,6.3-2.51c1.33,1.26,3.03,2.12,4.92,2.41-.32,6.02-1.7,20.38-7.74,27.44ZM43.82,45.08c0,1.89-1.54,3.43-3.43,3.43s-3.43-1.54-3.43-3.43c0-1.58-1.28-2.86-2.86-2.86s-2.86,1.28-2.86,2.86c0,1.89-1.54,3.43-3.43,3.43s-3.43-1.54-3.43-3.43c0-1.58-1.28-2.86-2.86-2.86s-2.86,1.28-2.86,2.86c0,1.89-1.54,3.43-3.43,3.43s-3.43-1.54-3.43-3.43v-9.73h69.84v9.73c0,1.89-1.54,3.43-3.43,3.43s-3.43-1.54-3.43-3.43c0-1.58-1.28-2.86-2.86-2.86s-2.86,1.28-2.86,2.86c0,1.89-1.54,3.43-3.43,3.43s-3.43-1.54-3.43-3.43c0-1.58-1.28-2.86-2.86-2.86s-2.86,1.28-2.86,2.86c0,1.89-1.54,3.43-3.43,3.43s-3.43-1.54-3.43-3.43c0-1.58-1.28-2.86-2.86-2.86s-2.86,1.28-2.86,2.86ZM62.1,81.57c-6.04-7.06-7.42-21.42-7.74-27.44,1.89-.29,3.59-1.15,4.92-2.41,1.64,1.56,3.86,2.51,6.3,2.51s4.65-.96,6.3-2.51c1.37,1.3,3.13,2.17,5.09,2.43.27,5.63,1.44,18.49,6.55,27.42h-21.41Z"/>
</svg>