<?xml version="1.0" encoding="UTF-8"?>
<svg id="Layer_1" xmlns="http://www.w3.org/2000/svg" viewBox="0 0 273.81 53.03">
  <defs>
    <style>
      .cls-1 {
        letter-spacing: 0em;
      }

      .cls-2 {
        font-family: CallunaSans-Semibold, 'Calluna Sans';
        font-size: 43.84px;
        font-weight: 600;
      }

      .cls-2, .cls-3 {
        fill: #f29770;
      }

      .cls-4 {
        letter-spacing: 0em;
      }

      .cls-5 {
        letter-spacing: -.01em;
      }

      .cls-6 {
        letter-spacing: 0em;
      }
    </style>
  </defs>
  <path class="cls-3" d="M55.67,48.55c-4.41-4.41-5.17-14.84-5.3-18.17,1.73-.97,2.9-2.82,2.9-4.94v-7.8c0-.69-.39-1.29-.97-1.58,0,0,0,0-.01,0L29.86,4.84V1.77c0-.98-.79-1.77-1.77-1.77s-1.77.79-1.77,1.77v3.07L3.9,16.05s0,0,0,0c-.58.29-.97.89-.97,1.58v7.8c0,2.12,1.17,3.97,2.9,4.94-.13,3.34-.89,13.76-5.3,18.17-.51.51-.66,1.27-.38,1.93.27.66.92,1.09,1.64,1.09h17.55c.47,0,.92-.19,1.25-.52,5.4-5.4,6.22-17.04,6.35-20.65.43-.24.82-.52,1.17-.86.35.33.75.62,1.17.86.13,3.61.95,15.26,6.35,20.65.33.33.78.52,1.25.52h17.55c.72,0,1.36-.43,1.64-1.09.27-.66.12-1.42-.38-1.93ZM28.09,7.92l15.89,7.94H12.2l15.89-7.94ZM18.55,48.03H5.29c3.16-5.53,3.89-13.49,4.06-16.98,1.21-.16,2.3-.7,3.15-1.51,1.02.96,2.39,1.56,3.9,1.56s2.88-.59,3.9-1.56c.82.78,1.87,1.31,3.04,1.49-.2,3.73-1.05,12.62-4.79,16.99ZM26.32,25.43c0,1.17-.95,2.13-2.13,2.13s-2.13-.95-2.13-2.13c0-.98-.79-1.77-1.77-1.77s-1.77.79-1.77,1.77c0,1.17-.95,2.13-2.13,2.13s-2.13-.95-2.13-2.13c0-.98-.79-1.77-1.77-1.77s-1.77.79-1.77,1.77c0,1.17-.95,2.13-2.13,2.13s-2.13-.95-2.13-2.13v-6.03h43.25v6.03c0,1.17-.95,2.13-2.13,2.13s-2.13-.95-2.13-2.13c0-.98-.79-1.77-1.77-1.77s-1.77.79-1.77,1.77c0,1.17-.95,2.13-2.13,2.13s-2.13-.95-2.13-2.13c0-.98-.79-1.77-1.77-1.77s-1.77.79-1.77,1.77c0,1.17-.95,2.13-2.13,2.13s-2.13-.95-2.13-2.13c0-.98-.79-1.77-1.77-1.77s-1.77.79-1.77,1.77ZM37.64,48.03c-3.74-4.37-4.6-13.26-4.79-16.99,1.17-.18,2.22-.71,3.04-1.49,1.02.96,2.39,1.56,3.9,1.56s2.88-.59,3.9-1.56c.85.8,1.94,1.35,3.15,1.51.17,3.48.89,11.45,4.06,16.98h-13.26Z"/>
  <text class="cls-2" transform="translate(73.33 42.24)"><tspan class="cls-5" x="0" y="0">E</tspan><tspan class="cls-4" x="23.37" y="0">v</tspan><tspan class="cls-1" x="43.58" y="0">ent </tspan><tspan class="cls-6" x="115.39" y="0">H</tspan><tspan x="148.27" y="0">i</tspan><tspan class="cls-4" x="158.79" y="0">v</tspan><tspan x="179" y="0">e</tspan></text>
</svg>